<svg class="page showed" xmlns="http://www.w3.org/2000/svg" xmlns:xlink="http://www.w3.org/1999/xlink">
    <path d="M 435.4429626464844 124.14756774902344 L 436.55474853515625 123.40637969970703 C 434.3311767578125 119.32990264892578 430.99591064453125 115.6240005493164 427.66058349609375 113.77105712890625 L 248.66571044921875 10.747095108032227 C 245.7010040283203 8.894146919250488 241.62449645996094 8.152966499328613 237.17742919921875 8.152966499328613 C 232.73036193847656 8.152966499328613 228.6538848876953 9.26473617553711 225.68914794921875 10.747095108032227 L 47.80606460571289 114.14163970947266 C 41.50604248046875 117.8475341796875 37.058963775634766 127.1122817993164 37.058963775634766 134.1534881591797 L 37.058963775634766 340.5719909667969 C 37.058963775634766 344.6484680175781 37.800140380859375 349.09552001953125 40.39426803588867 353.1720275878906 L 39.65309143066406 353.5426330566406 C 41.50604248046875 356.5073547363281 44.10016632080078 359.1014709472656 46.694297790527344 360.5838623046875 L 225.3185577392578 463.9783630371094 C 228.2832794189453 465.8313293457031 232.35977172851562 466.572509765625 236.80685424804688 466.572509765625 C 241.25390625 466.572509765625 245.3303985595703 465.4607238769531 248.29513549804688 463.9783630371094 L 426.17822265625 360.5838623046875 C 432.4782409667969 356.8779602050781 436.9253234863281 347.6131896972656 436.9253234863281 340.5719909667969 L 436.9253234863281 133.7828826904297 C 437.2959289550781 130.81817626953125 436.9253234863281 127.48287963867188 435.4429626464844 124.14756774902344 Z " fill="#FFFFFF" transform="matrix(1 0 0 1 159.796 323.904)" class="" stroke-width="0" fill-opacity="1" stroke="#FF0000" stroke-opacity="1" data-mantain-aspect-ratio="true"></path>
    <path d="M 437.183349609375 124.64376831054688 L 438.299560546875 123.89962005615234 C 436.0671081542969 119.80684661865234 432.718505859375 116.08613586425781 429.369873046875 114.22578430175781 L 249.6595916748047 10.790060043334961 C 246.68304443359375 8.929704666137695 242.59024047851562 8.185563087463379 238.12539672851562 8.185563087463379 C 233.66053771972656 8.185563087463379 229.56776428222656 9.301775932312012 226.59120178222656 10.790060043334961 L 47.99715042114258 114.59784698486328 C 41.67194366455078 118.31855773925781 37.207096099853516 127.62033081054688 37.207096099853516 134.68968200683594 L 37.207096099853516 341.9331970214844 C 37.207096099853516 346.0259704589844 37.951236724853516 350.4908142089844 40.55573272705078 354.5836181640625 L 39.81159210205078 354.9556884765625 C 41.67194366455078 357.9322204589844 44.27643966674805 360.5367431640625 46.88093948364258 362.0250244140625 L 226.21913146972656 465.8327941894531 C 229.19569396972656 467.6931457519531 233.28848266601562 468.43731689453125 237.75332641601562 468.43731689453125 C 242.21817016601562 468.43731689453125 246.31094360351562 467.3210754394531 249.2875213623047 465.8327941894531 L 427.8815612792969 362.0250244140625 C 434.2067565917969 358.3043212890625 438.671630859375 349.0025329589844 438.671630859375 341.9331970214844 L 438.671630859375 134.31759643554688 C 439.043701171875 131.34103393554688 438.671630859375 127.9924087524414 437.183349609375 124.64376831054688 Z M 238.12539672851562 329.28277587890625 C 271.9838562011719 329.28277587890625 301.74951171875 310.6792297363281 317.37652587890625 283.1459655761719 L 365.3736572265625 311.4233703613281 C 340.0728454589844 355.3277282714844 292.44775390625 385.0934143066406 238.12539672851562 385.0934143066406 C 157.01393127441406 385.0934143066406 91.15737915039062 319.23687744140625 91.15737915039062 238.12539672851562 C 91.15737915039062 157.01393127441406 157.01393127441406 91.15737915039062 238.12539672851562 91.15737915039062 C 292.81982421875 91.15737915039062 340.4449157714844 121.29512023925781 365.7457275390625 165.57156372070312 L 317.37652587890625 193.4768829345703 C 301.74951171875 165.57156372070312 271.9838562011719 146.968017578125 238.12539672851562 146.968017578125 C 187.8958282470703 146.968017578125 146.968017578125 187.8958282470703 146.968017578125 238.12539672851562 C 146.968017578125 288.35498046875 187.8958282470703 329.28277587890625 238.12539672851562 329.28277587890625 Z " fill="#03599C" transform="matrix(1 0 0 1 158.849 322.956)" class="" stroke-width="3.720709302503193"></path>
</svg>