<?xml version="1.0" encoding="UTF-8" standalone="no"?>
<svg
   width="800"
   height="800"
   viewBox="0 0 800 800"
   fill="none"
   version="1.1"
   id="svg16"
   sodipodi:docname="remix.svg"
   inkscape:version="1.2.2 (732a01da63, 2022-12-09)"
   xmlns:inkscape="http://www.inkscape.org/namespaces/inkscape"
   xmlns:sodipodi="http://sodipodi.sourceforge.net/DTD/sodipodi-0.dtd"
   xmlns="http://www.w3.org/2000/svg"
   xmlns:svg="http://www.w3.org/2000/svg">
  <defs
     id="defs20" />
  <sodipodi:namedview
     id="namedview18"
     pagecolor="#ffffff"
     bordercolor="#000000"
     borderopacity="0.25"
     inkscape:showpageshadow="2"
     inkscape:pageopacity="0.0"
     inkscape:pagecheckerboard="0"
     inkscape:deskcolor="#d1d1d1"
     showgrid="false"
     inkscape:zoom="0.76190756"
     inkscape:cx="-76.12472"
     inkscape:cy="359.62368"
     inkscape:window-width="1920"
     inkscape:window-height="1017"
     inkscape:window-x="1072"
     inkscape:window-y="450"
     inkscape:window-maximized="1"
     inkscape:current-layer="svg16" />
  <g
     id="g182"
     transform="matrix(0.82519338,0,0,0.82519338,61.928656,68.068289)">
    <path
       d="m 720.18324,612.22682 -0.002,-0.0295 -0.003,-0.0295 c -4.36307,-45.50573 -18.43241,-80.14804 -41.85072,-105.45941 -20.23697,-21.87435 -47.23325,-36.54029 -80.36274,-45.34838 88.28084,-18.51109 151.81906,-91.75066 151.81906,-200.19963 0,-76.57007 -25.24581,-139.19863 -76.2062,-182.624438 C 622.69602,35.177352 546.62259,11.341092 445.67376,11.341092 H 72.869033 69.590993 v 3.27804 158.017828 3.27804 h 3.27804 335.816987 c 43.98144,0 76.44385,9.44731 97.84452,26.20957 21.27775,16.66718 32.03299,40.88697 32.03299,71.47762 0,35.01109 -10.81588,58.47856 -31.9035,73.38544 -21.34495,15.08881 -53.78606,21.83829 -97.97401,21.83829 H 72.869033 69.590993 v 3.27804 161.48436 3.27804 h 3.27804 263.690307 62.26306 c 34.98486,0 61.08952,4.94656 79.26624,20.18944 18.10297,15.18059 29.06637,41.20986 32.12478,85.23719 l 0.002,0.0131 v 0.0115 c 4.65317,60.4667 4.06968,90.37388 3.50914,119.09277 v 0.0246 0.0164 c -0.18029,9.25226 -0.35895,18.40946 -0.35895,28.42387 v 3.27804 h 3.27804 207.24578 3.27803 v -3.27804 c 0,-45.88434 0,-87.96452 -6.98386,-177.64837 z"
       stroke="#121212"
       stroke-width="6.55608"
       fill="#ffffff"
       id="path12" />
    <path
       d="m 69.590993,789.87519 v 3.27804 h 3.27804 263.682117 3.27804 v -3.27804 -77.04374 c 0,-8.53437 -2.07992,-20.14026 -9.19817,-29.69902 -7.24283,-9.7243 -19.40271,-16.91632 -38.63004,-16.91632 H 72.869033 69.590993 v 3.27804 z"
       stroke="#121212"
       stroke-width="6.55608"
       fill="#ffffff"
       id="path14" />
  </g>
</svg>
